<svg width="75" height="59" viewBox="0 0 75 59" fill="none" xmlns="http://www.w3.org/2000/svg">
<path d="M0 9.75C0 9.75 0 0.375 9.375 0.375H65.625C65.625 0.375 75 0.375 75 9.75V37.875C75 37.875 75 47.25 65.625 47.25H46.875C46.875 50.3766 47.2641 52.7203 48.0469 54.2812H51.5625C52.1841 54.2812 52.7802 54.5282 53.2198 54.9677C53.6593 55.4073 53.9062 56.0034 53.9062 56.625C53.9062 57.2466 53.6593 57.8427 53.2198 58.2823C52.7802 58.7218 52.1841 58.9688 51.5625 58.9688H23.4375C22.8159 58.9688 22.2198 58.7218 21.7802 58.2823C21.3407 57.8427 21.0938 57.2466 21.0938 56.625C21.0938 56.0034 21.3407 55.4073 21.7802 54.9677C22.2198 54.5282 22.8159 54.2812 23.4375 54.2812H26.9531C27.7359 52.7203 28.125 50.3766 28.125 47.25H9.375C9.375 47.25 0 47.25 0 37.875V9.75ZM6.55312 5.74219C6.03823 6.10067 5.62743 6.5891 5.3625 7.15781C4.96293 7.98338 4.73339 8.88085 4.6875 9.79688V37.875C4.6875 39.3984 5.05312 40.2281 5.36719 40.6969C5.69531 41.1891 6.16406 41.5781 6.78281 41.8875C7.57283 42.2702 8.42893 42.4977 9.30469 42.5578L9.42188 42.5625H65.625C67.1484 42.5625 67.9781 42.1969 68.4469 41.8828C68.9618 41.5243 69.3726 41.0359 69.6375 40.4672C70.0202 39.6772 70.2477 38.8211 70.3078 37.9453L70.3125 37.8281V9.75C70.3125 8.22656 69.9469 7.39687 69.6328 6.92812C69.2745 6.41308 68.786 6.00224 68.2172 5.7375C67.3916 5.33793 66.4942 5.10839 65.5781 5.0625H9.375C7.85156 5.0625 7.02187 5.42812 6.55312 5.74219Z" fill="#00C4F0"/>
</svg>
