<svg width="63" height="63" viewBox="0 0 63 63" fill="none" xmlns="http://www.w3.org/2000/svg">
<path d="M37.75 0.25H6.5C4.8424 0.25 3.25268 0.90848 2.08058 2.08058C0.90848 3.25268 0.25 4.8424 0.25 6.5V37.75H6.5V6.5H37.75V0.25ZM50.25 12.75H19C17.3424 12.75 15.7527 13.4085 14.5806 14.5806C13.4085 15.7527 12.75 17.3424 12.75 19V50.25H19V19H50.25V12.75ZM56.5 25.25H31.5C29.8424 25.25 28.2527 25.9085 27.0806 27.0806C25.9085 28.2527 25.25 29.8424 25.25 31.5V56.5C25.25 58.1576 25.9085 59.7473 27.0806 60.9194C28.2527 62.0915 29.8424 62.75 31.5 62.75H56.5C59.9375 62.75 62.75 59.9375 62.75 56.5V31.5C62.75 28.0625 59.9375 25.25 56.5 25.25Z" fill="#00C4F0"/>
</svg>
